<svg width="25" height="24" viewBox="0 0 25 24" fill="none" xmlns="http://www.w3.org/2000/svg">
<path d="M17.5 2H7.5C4.73858 2 2.5 4.23858 2.5 7V17C2.5 19.7614 4.73858 22 7.5 22H17.5C20.2614 22 22.5 19.7614 22.5 17V7C22.5 4.23858 20.2614 2 17.5 2Z" stroke="#FFDBB8" stroke-width="2" stroke-linecap="round" stroke-linejoin="round"/>
<path d="M16.5 11.3698C16.6234 12.2021 16.4812 13.052 16.0937 13.7988C15.7062 14.5456 15.0931 15.1512 14.3416 15.5295C13.5901 15.9077 12.7384 16.0394 11.9077 15.9057C11.0771 15.7721 10.3097 15.3799 9.71479 14.785C9.11987 14.1901 8.72768 13.4227 8.59402 12.592C8.46035 11.7614 8.59202 10.9097 8.97028 10.1582C9.34854 9.40667 9.95414 8.79355 10.7009 8.40605C11.4477 8.01856 12.2977 7.8764 13.13 7.99981C13.9789 8.1257 14.7648 8.52128 15.3716 9.12812C15.9785 9.73496 16.3741 10.5209 16.5 11.3698Z" stroke="#FFDBB8" stroke-width="2" stroke-linecap="round" stroke-linejoin="round"/>
<path d="M18 6.5H18.01" stroke="#FFDBB8" stroke-width="2" stroke-linecap="round" stroke-linejoin="round"/>
</svg>
