<svg width="87" height="24" viewBox="0 0 87 24" fill="none" xmlns="http://www.w3.org/2000/svg">
<path d="M10.424 23.82C8.39733 23.82 6.65867 23.4893 5.208 22.828C3.77867 22.1667 2.65867 21.196 1.848 19.916C1.05867 18.636 0.621333 17.0467 0.536 15.148C0.514667 14.2733 0.504 13.3347 0.504 12.332C0.504 11.3293 0.514667 10.3693 0.536 9.452C0.621333 7.596 1.06933 6.028 1.88 4.748C2.69067 3.44667 3.82133 2.46533 5.272 1.804C6.72267 1.12133 8.44 0.779999 10.424 0.779999C11.832 0.779999 13.1333 0.961332 14.328 1.324C15.5227 1.66533 16.568 2.17733 17.464 2.86C18.36 3.52133 19.0533 4.332 19.544 5.292C20.056 6.23067 20.3227 7.29733 20.344 8.492C20.3653 8.684 20.3013 8.844 20.152 8.972C20.024 9.1 19.864 9.164 19.672 9.164H15.352C15.0747 9.164 14.8613 9.11067 14.712 9.004C14.5627 8.876 14.4347 8.652 14.328 8.332C14.0293 7.20133 13.5387 6.43333 12.856 6.028C12.1947 5.60133 11.3733 5.388 10.392 5.388C9.21867 5.388 8.29067 5.71867 7.608 6.38C6.92533 7.02 6.552 8.09733 6.488 9.612C6.424 11.3613 6.424 13.1533 6.488 14.988C6.552 16.5027 6.92533 17.5907 7.608 18.252C8.29067 18.892 9.21867 19.212 10.392 19.212C11.3733 19.212 12.2053 18.9987 12.888 18.572C13.5707 18.1453 14.0507 17.3773 14.328 16.268C14.4133 15.948 14.5307 15.7347 14.68 15.628C14.8507 15.5 15.0747 15.436 15.352 15.436H19.672C19.864 15.436 20.024 15.5 20.152 15.628C20.3013 15.756 20.3653 15.916 20.344 16.108C20.3227 17.3027 20.056 18.38 19.544 19.34C19.0533 20.2787 18.36 21.0893 17.464 21.772C16.568 22.4333 15.5227 22.9453 14.328 23.308C13.1333 23.6493 11.832 23.82 10.424 23.82ZM32.2208 23.82C30.2581 23.82 28.5514 23.5 27.1008 22.86C25.6501 22.22 24.5194 21.26 23.7088 19.98C22.8981 18.6787 22.4501 17.0573 22.3648 15.116C22.3434 14.1987 22.3328 13.2813 22.3328 12.364C22.3328 11.4467 22.3434 10.5187 22.3648 9.58C22.4501 7.66 22.8981 6.04933 23.7088 4.748C24.5408 3.42533 25.6821 2.43333 27.1328 1.772C28.5834 1.11067 30.2794 0.779999 32.2208 0.779999C34.1408 0.779999 35.8261 1.11067 37.2768 1.772C38.7488 2.43333 39.9008 3.42533 40.7328 4.748C41.5648 6.04933 42.0128 7.66 42.0768 9.58C42.1194 10.5187 42.1408 11.4467 42.1408 12.364C42.1408 13.2813 42.1194 14.1987 42.0768 15.116C41.9914 17.0573 41.5434 18.6787 40.7328 19.98C39.9221 21.26 38.7914 22.22 37.3408 22.86C35.8901 23.5 34.1834 23.82 32.2208 23.82ZM32.2208 19.212C33.3514 19.212 34.2688 18.8707 34.9728 18.188C35.6981 17.5053 36.0821 16.4173 36.1248 14.924C36.1674 13.9853 36.1888 13.1 36.1888 12.268C36.1888 11.436 36.1674 10.572 36.1248 9.676C36.0821 8.67333 35.8901 7.86267 35.5488 7.244C35.2288 6.604 34.7808 6.13467 34.2048 5.836C33.6288 5.53733 32.9674 5.388 32.2208 5.388C31.4954 5.388 30.8448 5.53733 30.2688 5.836C29.6928 6.13467 29.2341 6.604 28.8928 7.244C28.5514 7.86267 28.3594 8.67333 28.3168 9.676C28.2954 10.572 28.2848 11.436 28.2848 12.268C28.2848 13.1 28.2954 13.9853 28.3168 14.924C28.3808 16.4173 28.7648 17.5053 29.4688 18.188C30.1728 18.8707 31.0901 19.212 32.2208 19.212ZM54.362 23.82C52.3993 23.82 50.6927 23.5 49.242 22.86C47.7913 22.22 46.6607 21.26 45.85 19.98C45.0393 18.6787 44.5913 17.0573 44.506 15.116C44.4847 14.1987 44.474 13.2813 44.474 12.364C44.474 11.4467 44.4847 10.5187 44.506 9.58C44.5913 7.66 45.0393 6.04933 45.85 4.748C46.682 3.42533 47.8233 2.43333 49.274 1.772C50.7247 1.11067 52.4207 0.779999 54.362 0.779999C56.282 0.779999 57.9673 1.11067 59.418 1.772C60.89 2.43333 62.042 3.42533 62.874 4.748C63.706 6.04933 64.154 7.66 64.218 9.58C64.2607 10.5187 64.282 11.4467 64.282 12.364C64.282 13.2813 64.2607 14.1987 64.218 15.116C64.1327 17.0573 63.6847 18.6787 62.874 19.98C62.0633 21.26 60.9327 22.22 59.482 22.86C58.0313 23.5 56.3247 23.82 54.362 23.82ZM54.362 19.212C55.4927 19.212 56.41 18.8707 57.114 18.188C57.8393 17.5053 58.2233 16.4173 58.266 14.924C58.3087 13.9853 58.33 13.1 58.33 12.268C58.33 11.436 58.3087 10.572 58.266 9.676C58.2233 8.67333 58.0313 7.86267 57.69 7.244C57.37 6.604 56.922 6.13467 56.346 5.836C55.77 5.53733 55.1087 5.388 54.362 5.388C53.6367 5.388 52.986 5.53733 52.41 5.836C51.834 6.13467 51.3753 6.604 51.034 7.244C50.6927 7.86267 50.5007 8.67333 50.458 9.676C50.4367 10.572 50.426 11.436 50.426 12.268C50.426 13.1 50.4367 13.9853 50.458 14.924C50.522 16.4173 50.906 17.5053 51.61 18.188C52.314 18.8707 53.2313 19.212 54.362 19.212ZM68.1513 23.5C67.9166 23.5 67.7246 23.4253 67.5753 23.276C67.4259 23.1267 67.3513 22.9347 67.3513 22.7V1.9C67.3513 1.66533 67.4259 1.47333 67.5753 1.324C67.7246 1.17467 67.9166 1.1 68.1513 1.1H72.1833C72.4179 1.1 72.6099 1.17467 72.7593 1.324C72.9086 1.47333 72.9833 1.66533 72.9833 1.9V9.004L78.9033 1.708C78.9886 1.58 79.1273 1.452 79.3193 1.324C79.5326 1.17467 79.8099 1.1 80.1513 1.1H84.7593C84.9513 1.1 85.1113 1.17467 85.2393 1.324C85.3673 1.452 85.4313 1.60133 85.4313 1.772C85.4313 1.92133 85.3886 2.04933 85.3033 2.156L77.6553 11.82L85.9113 22.444C85.9966 22.5293 86.0393 22.6573 86.0393 22.828C86.0393 22.9987 85.9646 23.1587 85.8153 23.308C85.6873 23.436 85.5379 23.5 85.3673 23.5H80.5993C80.2153 23.5 79.9166 23.4147 79.7033 23.244C79.5113 23.0733 79.3833 22.9453 79.3193 22.86L72.9833 14.956V22.7C72.9833 22.9347 72.9086 23.1267 72.7593 23.276C72.6099 23.4253 72.4179 23.5 72.1833 23.5H68.1513Z" fill="#D27722"/>
</svg>
